<svg xmlns="http://www.w3.org/2000/svg" version="1.1" xmlns:xlink="http://www.w3.org/1999/xlink" xmlns:svgjs="http://svgjs.dev/svgjs" width="1440" height="560" preserveAspectRatio="none" viewBox="0 0 1440 560"><g mask="url(&quot;#SvgjsMask1000&quot;)" fill="none"><rect width="1440" height="560" x="0" y="0" fill="#0e2a47"></rect><path d="M29.97 431.84L94.92 469.34L94.92 544.34L29.97 581.84L-34.98 544.34L-34.98 469.34zM159.88 -18.16L224.83 19.34L224.83 94.34L159.88 131.84L94.92 94.34L94.92 19.34zM159.88 206.84L224.83 244.34L224.83 319.34L159.88 356.84L94.92 319.34L94.92 244.34zM354.74 319.34L419.69 356.84L419.69 431.84L354.74 469.34L289.78 431.84L289.78 356.84zM354.74 544.34L419.69 581.84L419.69 656.84L354.74 694.34L289.78 656.84L289.78 581.84zM484.65 94.34L549.6 131.84L549.6 206.84L484.65 244.34L419.69 206.84L419.69 131.84zM419.69 431.84L484.65 469.34L484.65 544.34L419.69 581.84L354.74 544.34L354.74 469.34zM484.65 544.34L549.6 581.84L549.6 656.84L484.65 694.34L419.69 656.84L419.69 581.84zM1004.28 319.34L1069.23 356.84L1069.23 431.84L1004.28 469.34L939.32 431.84L939.32 356.84zM1264.09 319.34L1329.04 356.84L1329.04 431.84L1264.09 469.34L1199.14 431.84L1199.14 356.84zM1394 319.34L1458.95 356.84L1458.95 431.84L1394 469.34L1329.05 431.84L1329.05 356.84zM1329.05 431.84L1394 469.34L1394 544.34L1329.05 581.84L1264.09 544.34L1264.09 469.34zM1394 544.34L1458.95 581.84L1458.95 656.84L1394 694.34L1329.05 656.84L1329.05 581.84z" stroke="#03305d" stroke-width="2"></path><path d="M22.47 431.84 a7.5 7.5 0 1 0 15 0 a7.5 7.5 0 1 0 -15 0zM87.42 469.34 a7.5 7.5 0 1 0 15 0 a7.5 7.5 0 1 0 -15 0zM87.42 544.34 a7.5 7.5 0 1 0 15 0 a7.5 7.5 0 1 0 -15 0zM22.47 581.84 a7.5 7.5 0 1 0 15 0 a7.5 7.5 0 1 0 -15 0zM-42.48 544.34 a7.5 7.5 0 1 0 15 0 a7.5 7.5 0 1 0 -15 0zM-42.48 469.34 a7.5 7.5 0 1 0 15 0 a7.5 7.5 0 1 0 -15 0zM152.38 -18.16 a7.5 7.5 0 1 0 15 0 a7.5 7.5 0 1 0 -15 0zM217.33 19.34 a7.5 7.5 0 1 0 15 0 a7.5 7.5 0 1 0 -15 0zM217.33 94.34 a7.5 7.5 0 1 0 15 0 a7.5 7.5 0 1 0 -15 0zM152.38 131.84 a7.5 7.5 0 1 0 15 0 a7.5 7.5 0 1 0 -15 0zM87.42 94.34 a7.5 7.5 0 1 0 15 0 a7.5 7.5 0 1 0 -15 0zM87.42 19.34 a7.5 7.5 0 1 0 15 0 a7.5 7.5 0 1 0 -15 0zM152.38 206.84 a7.5 7.5 0 1 0 15 0 a7.5 7.5 0 1 0 -15 0zM217.33 244.34 a7.5 7.5 0 1 0 15 0 a7.5 7.5 0 1 0 -15 0zM217.33 319.34 a7.5 7.5 0 1 0 15 0 a7.5 7.5 0 1 0 -15 0zM152.38 356.84 a7.5 7.5 0 1 0 15 0 a7.5 7.5 0 1 0 -15 0zM87.42 319.34 a7.5 7.5 0 1 0 15 0 a7.5 7.5 0 1 0 -15 0zM87.42 244.34 a7.5 7.5 0 1 0 15 0 a7.5 7.5 0 1 0 -15 0zM347.24 319.34 a7.5 7.5 0 1 0 15 0 a7.5 7.5 0 1 0 -15 0zM412.19 356.84 a7.5 7.5 0 1 0 15 0 a7.5 7.5 0 1 0 -15 0zM412.19 431.84 a7.5 7.5 0 1 0 15 0 a7.5 7.5 0 1 0 -15 0zM347.24 469.34 a7.5 7.5 0 1 0 15 0 a7.5 7.5 0 1 0 -15 0zM282.28 431.84 a7.5 7.5 0 1 0 15 0 a7.5 7.5 0 1 0 -15 0zM282.28 356.84 a7.5 7.5 0 1 0 15 0 a7.5 7.5 0 1 0 -15 0zM347.24 544.34 a7.5 7.5 0 1 0 15 0 a7.5 7.5 0 1 0 -15 0zM412.19 581.84 a7.5 7.5 0 1 0 15 0 a7.5 7.5 0 1 0 -15 0zM412.19 656.84 a7.5 7.5 0 1 0 15 0 a7.5 7.5 0 1 0 -15 0zM347.24 694.34 a7.5 7.5 0 1 0 15 0 a7.5 7.5 0 1 0 -15 0zM282.28 656.84 a7.5 7.5 0 1 0 15 0 a7.5 7.5 0 1 0 -15 0zM282.28 581.84 a7.5 7.5 0 1 0 15 0 a7.5 7.5 0 1 0 -15 0zM477.15 94.34 a7.5 7.5 0 1 0 15 0 a7.5 7.5 0 1 0 -15 0zM542.1 131.84 a7.5 7.5 0 1 0 15 0 a7.5 7.5 0 1 0 -15 0zM542.1 206.84 a7.5 7.5 0 1 0 15 0 a7.5 7.5 0 1 0 -15 0zM477.15 244.34 a7.5 7.5 0 1 0 15 0 a7.5 7.5 0 1 0 -15 0zM412.19 206.84 a7.5 7.5 0 1 0 15 0 a7.5 7.5 0 1 0 -15 0zM412.19 131.84 a7.5 7.5 0 1 0 15 0 a7.5 7.5 0 1 0 -15 0zM477.15 469.34 a7.5 7.5 0 1 0 15 0 a7.5 7.5 0 1 0 -15 0zM477.15 544.34 a7.5 7.5 0 1 0 15 0 a7.5 7.5 0 1 0 -15 0zM542.1 581.84 a7.5 7.5 0 1 0 15 0 a7.5 7.5 0 1 0 -15 0zM542.1 656.84 a7.5 7.5 0 1 0 15 0 a7.5 7.5 0 1 0 -15 0zM477.15 694.34 a7.5 7.5 0 1 0 15 0 a7.5 7.5 0 1 0 -15 0zM996.78 319.34 a7.5 7.5 0 1 0 15 0 a7.5 7.5 0 1 0 -15 0zM1061.73 356.84 a7.5 7.5 0 1 0 15 0 a7.5 7.5 0 1 0 -15 0zM1061.73 431.84 a7.5 7.5 0 1 0 15 0 a7.5 7.5 0 1 0 -15 0zM996.78 469.34 a7.5 7.5 0 1 0 15 0 a7.5 7.5 0 1 0 -15 0zM931.82 431.84 a7.5 7.5 0 1 0 15 0 a7.5 7.5 0 1 0 -15 0zM931.82 356.84 a7.5 7.5 0 1 0 15 0 a7.5 7.5 0 1 0 -15 0zM1256.59 319.34 a7.5 7.5 0 1 0 15 0 a7.5 7.5 0 1 0 -15 0zM1321.54 356.84 a7.5 7.5 0 1 0 15 0 a7.5 7.5 0 1 0 -15 0zM1321.54 431.84 a7.5 7.5 0 1 0 15 0 a7.5 7.5 0 1 0 -15 0zM1256.59 469.34 a7.5 7.5 0 1 0 15 0 a7.5 7.5 0 1 0 -15 0zM1191.64 431.84 a7.5 7.5 0 1 0 15 0 a7.5 7.5 0 1 0 -15 0zM1191.64 356.84 a7.5 7.5 0 1 0 15 0 a7.5 7.5 0 1 0 -15 0zM1386.5 319.34 a7.5 7.5 0 1 0 15 0 a7.5 7.5 0 1 0 -15 0zM1451.45 356.84 a7.5 7.5 0 1 0 15 0 a7.5 7.5 0 1 0 -15 0zM1451.45 431.84 a7.5 7.5 0 1 0 15 0 a7.5 7.5 0 1 0 -15 0zM1386.5 469.34 a7.5 7.5 0 1 0 15 0 a7.5 7.5 0 1 0 -15 0zM1321.55 431.84 a7.5 7.5 0 1 0 15 0 a7.5 7.5 0 1 0 -15 0zM1321.55 356.84 a7.5 7.5 0 1 0 15 0 a7.5 7.5 0 1 0 -15 0zM1386.5 544.34 a7.5 7.5 0 1 0 15 0 a7.5 7.5 0 1 0 -15 0zM1321.55 581.84 a7.5 7.5 0 1 0 15 0 a7.5 7.5 0 1 0 -15 0zM1256.59 544.34 a7.5 7.5 0 1 0 15 0 a7.5 7.5 0 1 0 -15 0zM1451.45 581.84 a7.5 7.5 0 1 0 15 0 a7.5 7.5 0 1 0 -15 0zM1451.45 656.84 a7.5 7.5 0 1 0 15 0 a7.5 7.5 0 1 0 -15 0zM1386.5 694.34 a7.5 7.5 0 1 0 15 0 a7.5 7.5 0 1 0 -15 0zM1321.55 656.84 a7.5 7.5 0 1 0 15 0 a7.5 7.5 0 1 0 -15 0z" fill="#03305d"></path><path d="M37.29 147.03L80.59 172.03L80.59 222.03L37.29 247.03L-6.01 222.03L-6.01 172.03zM80.59 222.03L123.9 247.03L123.9 297.03L80.59 322.03L37.29 297.03L37.29 247.03zM37.29 297.03L80.59 322.03L80.59 372.03L37.29 397.03L-6.01 372.03L-6.01 322.03zM37.29 447.03L80.59 472.03L80.59 522.03L37.29 547.03L-6.01 522.03L-6.01 472.03zM80.59 522.03L123.9 547.03L123.9 597.03L80.59 622.03L37.29 597.03L37.29 547.03zM167.2 72.03L210.5 97.03L210.5 147.03L167.2 172.03L123.9 147.03L123.9 97.03zM123.9 147.03L167.2 172.03L167.2 222.03L123.9 247.03L80.59 222.03L80.59 172.03zM123.9 297.03L167.2 322.03L167.2 372.03L123.9 397.03L80.59 372.03L80.59 322.03zM210.5 -2.97L253.8 22.03L253.8 72.03L210.5 97.03L167.2 72.03L167.2 22.03zM253.8 72.03L297.11 97.03L297.11 147.03L253.8 172.03L210.5 147.03L210.5 97.03zM253.8 222.03L297.11 247.03L297.11 297.03L253.8 322.03L210.5 297.03L210.5 247.03zM210.5 297.03L253.8 322.03L253.8 372.03L210.5 397.03L167.2 372.03L167.2 322.03zM210.5 447.03L253.8 472.03L253.8 522.03L210.5 547.03L167.2 522.03L167.2 472.03zM253.8 522.03L297.11 547.03L297.11 597.03L253.8 622.03L210.5 597.03L210.5 547.03zM297.11 -2.97L340.41 22.03L340.41 72.03L297.11 97.03L253.8 72.03L253.8 22.03zM340.41 72.03L383.71 97.03L383.71 147.03L340.41 172.03L297.11 147.03L297.11 97.03zM297.11 147.03L340.41 172.03L340.41 222.03L297.11 247.03L253.8 222.03L253.8 172.03zM340.41 222.03L383.71 247.03L383.71 297.03L340.41 322.03L297.11 297.03L297.11 247.03zM297.11 297.03L340.41 322.03L340.41 372.03L297.11 397.03L253.8 372.03L253.8 322.03zM297.11 447.03L340.41 472.03L340.41 522.03L297.11 547.03L253.8 522.03L253.8 472.03zM340.41 522.03L383.71 547.03L383.71 597.03L340.41 622.03L297.11 597.03L297.11 547.03zM427.01 222.03L470.32 247.03L470.32 297.03L427.01 322.03L383.71 297.03L383.71 247.03zM427.01 372.03L470.32 397.03L470.32 447.03L427.01 472.03L383.71 447.03L383.71 397.03zM427.01 522.03L470.32 547.03L470.32 597.03L427.01 622.03L383.71 597.03L383.71 547.03zM513.62 372.03L556.92 397.03L556.92 447.03L513.62 472.03L470.32 447.03L470.32 397.03zM470.32 447.03L513.62 472.03L513.62 522.03L470.32 547.03L427.01 522.03L427.01 472.03zM600.22 72.03L643.52 97.03L643.52 147.03L600.22 172.03L556.92 147.03L556.92 97.03zM600.22 222.03L643.52 247.03L643.52 297.03L600.22 322.03L556.92 297.03L556.92 247.03zM556.92 297.03L600.22 322.03L600.22 372.03L556.92 397.03L513.62 372.03L513.62 322.03zM556.92 447.03L600.22 472.03L600.22 522.03L556.92 547.03L513.62 522.03L513.62 472.03zM600.22 522.03L643.52 547.03L643.52 597.03L600.22 622.03L556.92 597.03L556.92 547.03zM686.83 222.03L730.13 247.03L730.13 297.03L686.83 322.03L643.52 297.03L643.52 247.03zM643.52 447.03L686.83 472.03L686.83 522.03L643.52 547.03L600.22 522.03L600.22 472.03zM773.43 72.03L816.74 97.03L816.74 147.03L773.43 172.03L730.13 147.03L730.13 97.03zM773.43 372.03L816.74 397.03L816.74 447.03L773.43 472.03L730.13 447.03L730.13 397.03zM730.13 447.03L773.43 472.03L773.43 522.03L730.13 547.03L686.83 522.03L686.83 472.03zM860.04 222.03L903.34 247.03L903.34 297.03L860.04 322.03L816.74 297.03L816.74 247.03zM816.74 447.03L860.04 472.03L860.04 522.03L816.74 547.03L773.43 522.03L773.43 472.03zM946.64 72.03L989.95 97.03L989.95 147.03L946.64 172.03L903.34 147.03L903.34 97.03zM903.34 147.03L946.64 172.03L946.64 222.03L903.34 247.03L860.04 222.03L860.04 172.03zM946.64 222.03L989.95 247.03L989.95 297.03L946.64 322.03L903.34 297.03L903.34 247.03zM903.34 447.03L946.64 472.03L946.64 522.03L903.34 547.03L860.04 522.03L860.04 472.03zM1033.25 222.03L1076.55 247.03L1076.55 297.03L1033.25 322.03L989.95 297.03L989.95 247.03zM989.95 297.03L1033.25 322.03L1033.25 372.03L989.95 397.03L946.64 372.03L946.64 322.03zM989.95 447.03L1033.25 472.03L1033.25 522.03L989.95 547.03L946.64 522.03L946.64 472.03zM1076.55 147.03L1119.85 172.03L1119.85 222.03L1076.55 247.03L1033.25 222.03L1033.25 172.03zM1119.85 222.03L1163.15 247.03L1163.15 297.03L1119.85 322.03L1076.55 297.03L1076.55 247.03zM1119.85 522.03L1163.15 547.03L1163.15 597.03L1119.85 622.03L1076.55 597.03L1076.55 547.03zM1206.46 222.03L1249.76 247.03L1249.76 297.03L1206.46 322.03L1163.15 297.03L1163.15 247.03zM1206.46 372.03L1249.76 397.03L1249.76 447.03L1206.46 472.03L1163.15 447.03L1163.15 397.03zM1163.15 447.03L1206.46 472.03L1206.46 522.03L1163.15 547.03L1119.85 522.03L1119.85 472.03zM1293.06 222.03L1336.37 247.03L1336.37 297.03L1293.06 322.03L1249.76 297.03L1249.76 247.03zM1249.76 297.03L1293.06 322.03L1293.06 372.03L1249.76 397.03L1206.46 372.03L1206.46 322.03zM1249.76 447.03L1293.06 472.03L1293.06 522.03L1249.76 547.03L1206.46 522.03L1206.46 472.03zM1379.67 72.03L1422.97 97.03L1422.97 147.03L1379.67 172.03L1336.37 147.03L1336.37 97.03zM1336.37 447.03L1379.67 472.03L1379.67 522.03L1336.37 547.03L1293.06 522.03L1293.06 472.03zM1379.67 522.03L1422.97 547.03L1422.97 597.03L1379.67 622.03L1336.37 597.03L1336.37 547.03zM1422.97 297.03L1466.27 322.03L1466.27 372.03L1422.97 397.03L1379.67 372.03L1379.67 322.03zM1466.27 372.03L1509.58 397.03L1509.58 447.03L1466.27 472.03L1422.97 447.03L1422.97 397.03z" stroke="rgba(6, 80, 156, 0.93)" stroke-width="2"></path></g><defs><mask id="SvgjsMask1000"><rect width="1440" height="560" fill="#ffffff"></rect></mask></defs></svg>